<svg xmlns="http://www.w3.org/2000/svg" xmlns:xlink="http://www.w3.org/1999/xlink" width="335" zoomAndPan="magnify" viewBox="20 150 335 75" height="75" preserveAspectRatio="xMidYMid meet" version="1.0"><path fill="#000000" d="M 273.796875 203.90625 C 273.796875 204.953125 273.578125 206 273.191406 206.9375 C 272.804688 207.875 272.253906 208.699219 271.539062 209.417969 C 270.820312 210.132812 269.992188 210.683594 269.054688 211.070312 C 268.117188 211.457031 267.070312 211.679688 266.023438 211.679688 C 264.976562 211.679688 263.984375 211.457031 263.046875 211.070312 C 262.109375 210.683594 261.28125 210.132812 260.5625 209.417969 C 259.847656 208.699219 259.296875 207.875 258.910156 206.9375 C 258.523438 206 258.304688 204.953125 258.304688 203.90625 L 258.304688 191.117188 L 253.230469 191.117188 L 253.230469 203.90625 C 253.230469 205.667969 253.5625 207.324219 254.222656 208.867188 C 254.882812 210.410156 255.820312 211.789062 256.980469 213 C 258.136719 214.160156 259.515625 215.09375 261.058594 215.757812 C 262.605469 216.417969 264.257812 216.75 266.023438 216.75 C 267.789062 216.75 269.496094 216.417969 271.039062 215.757812 C 272.585938 215.09375 273.964844 214.160156 275.121094 213 C 276.28125 211.84375 277.21875 210.464844 277.878906 208.867188 C 278.539062 207.324219 278.871094 205.667969 278.871094 203.90625 L 278.871094 191.117188 L 273.796875 191.117188 Z M 273.796875 203.90625 " fill-opacity="1" fill-rule="nonzero"/><path fill="#000000" d="M 302.804688 194.863281 C 301.644531 193.707031 300.265625 192.769531 298.722656 192.109375 C 297.179688 191.445312 295.523438 191.117188 293.703125 191.117188 C 291.941406 191.117188 290.285156 191.445312 288.742188 192.109375 C 287.199219 192.769531 285.820312 193.707031 284.605469 194.863281 C 283.449219 196.023438 282.511719 197.402344 281.847656 198.945312 C 281.1875 200.488281 280.855469 202.140625 280.855469 203.960938 C 280.855469 205.722656 281.1875 207.378906 281.847656 208.921875 C 282.511719 210.464844 283.449219 211.84375 284.605469 213.054688 C 285.765625 214.214844 287.144531 215.152344 288.742188 215.8125 C 290.285156 216.472656 291.941406 216.804688 293.703125 216.804688 L 306.496094 216.804688 L 306.496094 203.960938 C 306.496094 202.195312 306.167969 200.488281 305.503906 198.945312 C 304.898438 197.34375 303.960938 196.023438 302.804688 194.863281 Z M 301.480469 211.679688 L 293.757812 211.679688 C 292.710938 211.679688 291.664062 211.457031 290.726562 211.070312 C 289.789062 210.683594 288.960938 210.132812 288.246094 209.417969 C 287.527344 208.699219 286.976562 207.875 286.589844 206.9375 C 286.207031 206 285.984375 204.953125 285.984375 203.90625 C 285.984375 202.859375 286.207031 201.867188 286.589844 200.929688 C 286.976562 199.992188 287.527344 199.164062 288.246094 198.449219 C 288.960938 197.730469 289.789062 197.179688 290.726562 196.792969 C 291.664062 196.40625 292.710938 196.1875 293.757812 196.1875 C 294.808594 196.1875 295.800781 196.40625 296.738281 196.792969 C 297.675781 197.179688 298.503906 197.730469 299.21875 198.449219 C 299.9375 199.164062 300.488281 199.992188 300.875 200.929688 C 301.257812 201.867188 301.480469 202.859375 301.480469 203.90625 Z M 301.480469 211.679688 " fill-opacity="1" fill-rule="nonzero"/><path fill="#000000" d="M 317.414062 192.109375 C 315.871094 192.769531 314.492188 193.707031 313.28125 194.863281 C 312.121094 196.023438 311.183594 197.402344 310.523438 198.945312 C 309.863281 200.488281 309.53125 202.140625 309.53125 203.960938 L 309.53125 216.804688 L 314.660156 216.804688 L 314.660156 203.960938 C 314.660156 202.914062 314.878906 201.921875 315.265625 200.984375 C 315.652344 200.046875 316.203125 199.21875 316.917969 198.503906 C 317.636719 197.785156 318.464844 197.234375 319.402344 196.847656 C 320.339844 196.464844 321.332031 196.242188 322.378906 196.242188 L 324.96875 196.242188 L 324.96875 191.171875 L 322.378906 191.171875 C 320.613281 191.117188 318.960938 191.445312 317.414062 192.109375 Z M 317.414062 192.109375 " fill-opacity="1" fill-rule="nonzero"/><path fill="#000000" d="M 347.027344 180.808594 L 347.027344 191.0625 L 339.308594 191.0625 C 337.542969 191.0625 335.886719 191.390625 334.34375 192.054688 C 332.800781 192.714844 331.421875 193.652344 330.207031 194.808594 C 329.050781 195.96875 328.113281 197.34375 327.453125 198.890625 C 326.789062 200.433594 326.460938 202.085938 326.460938 203.90625 C 326.460938 205.667969 326.789062 207.324219 327.453125 208.867188 C 328.113281 210.410156 329.050781 211.789062 330.207031 213 C 331.367188 214.160156 332.746094 215.09375 334.34375 215.757812 C 335.886719 216.417969 337.542969 216.75 339.308594 216.75 C 341.070312 216.75 342.726562 216.417969 344.269531 215.757812 C 345.8125 215.09375 347.191406 214.160156 348.351562 213 C 349.507812 211.84375 350.445312 210.464844 351.109375 208.867188 C 351.769531 207.324219 352.101562 205.667969 352.101562 203.90625 L 352.101562 180.808594 Z M 347.027344 203.90625 C 347.027344 204.953125 346.808594 206 346.421875 206.9375 C 346.035156 207.875 345.484375 208.699219 344.765625 209.417969 C 344.050781 210.132812 343.222656 210.683594 342.285156 211.070312 C 341.347656 211.457031 340.355469 211.679688 339.308594 211.679688 C 338.257812 211.679688 337.210938 211.457031 336.273438 211.070312 C 335.335938 210.683594 334.511719 210.132812 333.792969 209.417969 C 333.078125 208.699219 332.523438 207.875 332.140625 206.9375 C 331.753906 206 331.53125 204.953125 331.53125 203.90625 C 331.53125 202.859375 331.753906 201.867188 332.140625 200.929688 C 332.523438 199.992188 333.078125 199.164062 333.792969 198.449219 C 334.511719 197.730469 335.335938 197.179688 336.273438 196.792969 C 337.210938 196.40625 338.257812 196.1875 339.308594 196.1875 L 347.027344 196.1875 Z M 347.027344 203.90625 " fill-opacity="1" fill-rule="nonzero"/><path fill="#000000" d="M 248.652344 195.414062 L 232.441406 195.414062 L 232.441406 200.761719 L 245.34375 200.761719 C 245.179688 201.976562 244.902344 203.132812 244.40625 204.292969 C 243.746094 205.835938 242.808594 207.210938 241.648438 208.425781 C 240.492188 209.582031 239.058594 210.519531 237.515625 211.183594 C 235.96875 211.84375 234.261719 212.175781 232.496094 212.175781 C 230.730469 212.175781 229.023438 211.84375 227.421875 211.183594 C 225.824219 210.519531 224.445312 209.582031 223.230469 208.425781 C 222.074219 207.269531 221.136719 205.890625 220.476562 204.292969 C 219.8125 202.746094 219.484375 201.039062 219.484375 199.273438 C 219.484375 197.511719 219.8125 195.800781 220.476562 194.203125 C 221.136719 192.605469 222.074219 191.226562 223.230469 190.011719 C 224.390625 188.855469 225.824219 187.917969 227.421875 187.257812 C 229.023438 186.597656 230.730469 186.265625 232.496094 186.265625 L 245.34375 186.265625 L 245.34375 180.917969 L 232.496094 180.917969 C 230.015625 180.917969 227.589844 181.414062 225.382812 182.351562 C 223.175781 183.289062 221.191406 184.613281 219.484375 186.320312 C 217.773438 188.027344 216.449219 189.957031 215.511719 192.21875 C 214.574219 194.421875 214.078125 196.847656 214.078125 199.328125 C 214.078125 201.867188 214.574219 204.292969 215.511719 206.496094 C 216.449219 208.699219 217.773438 210.628906 219.484375 212.285156 C 221.191406 213.9375 223.175781 215.261719 225.382812 216.199219 C 227.589844 217.136719 230.015625 217.632812 232.496094 217.632812 C 235.03125 217.632812 237.460938 217.136719 239.664062 216.199219 C 241.871094 215.261719 243.800781 213.9375 245.453125 212.285156 C 247.109375 210.628906 248.433594 208.699219 249.371094 206.496094 C 250.308594 204.292969 250.804688 201.921875 250.804688 199.328125 L 250.804688 195.527344 Z M 248.652344 195.414062 " fill-opacity="1" fill-rule="nonzero"/><path fill="#000000" d="M 55.378906 176.839844 C 49.476562 176.839844 44.734375 181.632812 44.734375 187.476562 C 44.734375 193.320312 49.535156 198.117188 55.378906 198.117188 C 61.277344 198.117188 66.019531 193.320312 66.019531 187.476562 C 66.019531 181.632812 61.277344 176.839844 55.378906 176.839844 Z M 55.378906 176.839844 " fill-opacity="1" fill-rule="nonzero"/><path fill="#000000" d="M 171.675781 160.136719 C 167.703125 160.136719 164.449219 163.386719 164.449219 167.355469 C 164.449219 171.328125 167.703125 174.578125 171.675781 174.578125 C 175.644531 174.578125 178.898438 171.328125 178.898438 167.355469 C 178.898438 163.386719 175.644531 160.136719 171.675781 160.136719 Z M 171.675781 160.136719 " fill-opacity="1" fill-rule="nonzero"/><path fill="#000000" d="M 175.921875 175.847656 L 167.371094 175.847656 C 166.378906 175.847656 165.609375 176.671875 165.609375 177.609375 L 165.609375 216.363281 C 165.609375 217.355469 166.433594 218.128906 167.371094 218.128906 L 175.921875 218.128906 C 176.914062 218.128906 177.683594 217.300781 177.683594 216.363281 L 177.683594 177.664062 C 177.738281 176.671875 176.914062 175.847656 175.921875 175.847656 Z M 175.921875 175.847656 " fill-opacity="1" fill-rule="nonzero"/><path fill="#000000" d="M 204.925781 188.25 C 205.53125 188.25 205.972656 187.753906 205.972656 187.203125 L 205.972656 177.058594 C 205.972656 176.453125 205.476562 176.011719 204.925781 176.011719 L 193.621094 176.011719 L 193.621094 162.617188 C 193.621094 161.625 192.792969 160.796875 191.800781 160.796875 L 183.199219 160.796875 C 182.207031 160.796875 181.378906 161.625 181.378906 162.617188 L 181.378906 196.960938 C 181.378906 199.824219 181.929688 202.582031 183.035156 205.171875 C 184.136719 207.707031 185.679688 210.023438 187.609375 211.953125 C 189.539062 213.882812 191.855469 215.425781 194.394531 216.527344 C 196.984375 217.632812 199.742188 218.183594 202.609375 218.183594 L 204.925781 218.183594 C 205.53125 218.183594 205.972656 217.6875 205.972656 217.136719 L 205.972656 206.992188 C 205.972656 206.386719 205.476562 205.945312 204.925781 205.945312 L 202.609375 205.945312 C 201.394531 205.945312 200.183594 205.722656 199.078125 205.226562 C 197.976562 204.730469 197.039062 204.125 196.210938 203.296875 C 195.386719 202.472656 194.777344 201.535156 194.28125 200.433594 C 193.839844 199.328125 193.566406 198.171875 193.566406 196.902344 L 193.566406 188.140625 L 204.925781 188.140625 Z M 204.925781 188.25 " fill-opacity="1" fill-rule="nonzero"/><path fill="#000000" d="M 156.289062 182.1875 C 154.359375 180.257812 152.097656 178.769531 149.617188 177.664062 C 147.082031 176.5625 144.269531 176.011719 141.34375 176.011719 L 132.355469 176.011719 L 132.355469 162.617188 C 132.355469 161.625 131.53125 160.796875 130.539062 160.796875 L 121.878906 160.796875 C 120.886719 160.796875 120.0625 161.625 120.0625 162.617188 L 120.0625 197.179688 C 120.0625 200.046875 120.613281 202.800781 121.714844 205.394531 C 122.816406 207.929688 124.363281 210.246094 126.292969 212.175781 C 128.222656 214.101562 130.539062 215.648438 133.074219 216.75 C 135.664062 217.851562 138.421875 218.402344 141.289062 218.402344 C 144.214844 218.402344 147.023438 217.851562 149.5625 216.75 C 152.097656 215.648438 154.359375 214.101562 156.234375 212.175781 C 158.164062 210.246094 159.652344 207.984375 160.753906 205.394531 C 161.859375 202.800781 162.410156 200.046875 162.410156 197.179688 C 162.410156 194.257812 161.859375 191.445312 160.753906 188.910156 C 159.707031 186.375 158.21875 184.117188 156.289062 182.1875 Z M 149.5625 200.652344 C 149.121094 201.753906 148.460938 202.746094 147.632812 203.519531 C 146.804688 204.347656 145.867188 204.953125 144.765625 205.449219 C 142.613281 206.332031 139.96875 206.332031 137.816406 205.449219 C 136.714844 204.953125 135.777344 204.347656 134.949219 203.519531 C 134.121094 202.691406 133.515625 201.753906 133.019531 200.652344 C 132.578125 199.550781 132.300781 198.394531 132.300781 197.125 L 132.300781 188.195312 L 141.289062 188.195312 C 142.503906 188.195312 143.660156 188.414062 144.765625 188.855469 C 145.867188 189.296875 146.804688 189.957031 147.632812 190.785156 C 148.460938 191.613281 149.066406 192.550781 149.5625 193.652344 C 150.003906 194.699219 150.222656 195.855469 150.222656 197.125 C 150.222656 198.394531 150.003906 199.550781 149.5625 200.652344 Z M 149.5625 200.652344 " fill-opacity="1" fill-rule="nonzero"/><path fill="#000000" d="M 115.261719 175.847656 L 110.960938 175.847656 C 108.09375 175.847656 105.335938 176.398438 102.746094 177.5 C 100.210938 178.601562 97.894531 180.089844 95.964844 182.019531 C 94.035156 183.949219 92.488281 186.210938 91.386719 188.691406 C 90.285156 191.226562 89.730469 194.039062 89.730469 196.960938 L 89.730469 216.363281 C 89.730469 217.355469 90.558594 218.183594 91.550781 218.183594 L 100.152344 218.183594 C 101.148438 218.183594 101.972656 217.355469 101.972656 216.363281 L 101.972656 207.597656 L 102.027344 207.597656 L 102.027344 196.960938 C 102.027344 195.746094 102.25 194.589844 102.691406 193.488281 C 103.132812 192.382812 103.792969 191.445312 104.621094 190.621094 C 105.449219 189.792969 106.386719 189.1875 107.488281 188.691406 C 108.535156 188.25 109.695312 188.027344 110.960938 188.027344 L 115.261719 188.027344 C 115.871094 188.027344 116.367188 187.53125 116.367188 186.925781 L 116.367188 176.949219 C 116.421875 176.34375 115.925781 175.847656 115.261719 175.847656 Z M 115.261719 175.847656 " fill-opacity="1" fill-rule="nonzero"/><path fill="#000000" d="M 81.847656 168.734375 C 81.019531 167.578125 79.367188 167.46875 78.371094 168.460938 L 72.804688 174.082031 C 72.085938 174.800781 71.921875 175.957031 72.472656 176.894531 C 75.007812 180.972656 76.167969 185.988281 75.175781 191.335938 C 73.6875 199.328125 67.289062 205.78125 59.292969 207.324219 C 45.617188 209.914062 33.761719 198.558594 35.363281 185.050781 C 36.464844 176.066406 43.632812 168.789062 52.566406 167.578125 C 56.8125 166.972656 60.835938 167.742188 64.3125 169.507812 C 65.195312 169.949219 66.242188 169.78125 66.902344 169.066406 L 72.636719 163.332031 C 73.6875 162.285156 73.464844 160.578125 72.253906 159.804688 C 66.351562 156.167969 59.128906 154.402344 51.519531 155.285156 C 36.300781 157.050781 24.222656 169.5625 23.007812 184.886719 C 21.355469 205.394531 38.890625 222.371094 59.625 219.726562 C 74.015625 217.90625 85.597656 206.441406 87.582031 192.109375 C 88.738281 183.34375 86.480469 175.183594 81.847656 168.734375 Z M 81.847656 168.734375 " fill-opacity="1" fill-rule="nonzero"/></svg>