<svg xmlns="http://www.w3.org/2000/svg" xmlns:xlink="http://www.w3.org/1999/xlink" width="500" zoomAndPan="magnify" viewBox="0 0 375 374.999991" height="500" preserveAspectRatio="xMidYMid meet" version="1.0"><path fill="#000000" d="M 90.023438 170.019531 C 80.285156 170.019531 72.457031 177.945312 72.457031 187.605469 C 72.457031 197.265625 80.375 205.191406 90.023438 205.191406 C 99.761719 205.191406 107.589844 197.265625 107.589844 187.605469 C 107.589844 177.945312 99.671875 170.019531 90.023438 170.019531 Z M 90.023438 170.019531 " fill-opacity="1" fill-rule="nonzero"/><path fill="#000000" d="M 281.882812 142.40625 C 275.328125 142.40625 269.957031 147.785156 269.957031 154.34375 C 269.957031 160.90625 275.328125 166.28125 281.882812 166.28125 C 288.433594 166.28125 293.804688 160.90625 293.804688 154.34375 C 293.804688 147.785156 288.433594 142.40625 281.882812 142.40625 Z M 281.882812 142.40625 " fill-opacity="1" fill-rule="nonzero"/><path fill="#000000" d="M 288.980469 168.378906 L 274.875 168.378906 C 273.234375 168.378906 271.960938 169.746094 271.960938 171.292969 L 271.960938 235.355469 C 271.960938 236.996094 273.324219 238.269531 274.875 238.269531 L 288.980469 238.269531 C 290.617188 238.269531 291.894531 236.902344 291.894531 235.355469 L 291.894531 171.386719 C 291.894531 169.746094 290.617188 168.378906 288.980469 168.378906 Z M 288.980469 168.378906 " fill-opacity="1" fill-rule="nonzero"/><path fill="#000000" d="M 336.851562 188.882812 C 337.855469 188.882812 338.582031 188.0625 338.582031 187.148438 L 338.582031 170.382812 C 338.582031 169.378906 337.761719 168.652344 336.851562 168.652344 L 318.195312 168.652344 L 318.195312 146.507812 C 318.195312 144.867188 316.832031 143.5 315.191406 143.5 L 300.992188 143.5 C 299.355469 143.5 297.992188 144.867188 297.992188 146.507812 L 297.992188 203.277344 C 297.992188 208.015625 298.902344 212.574219 300.722656 216.855469 C 302.542969 221.046875 305.089844 224.875 308.273438 228.066406 C 311.460938 231.253906 315.28125 233.804688 319.46875 235.628906 C 323.746094 237.449219 328.296875 238.363281 333.03125 238.363281 L 336.851562 238.363281 C 337.855469 238.363281 338.582031 237.542969 338.582031 236.628906 L 338.582031 219.863281 C 338.582031 218.863281 337.761719 218.132812 336.851562 218.132812 L 333.03125 218.132812 C 331.027344 218.132812 329.027344 217.769531 327.207031 216.949219 C 325.386719 216.128906 323.839844 215.125 322.472656 213.757812 C 321.109375 212.390625 320.105469 210.84375 319.289062 209.019531 C 318.558594 207.199219 318.105469 205.285156 318.105469 203.1875 L 318.105469 188.699219 L 336.851562 188.699219 Z M 336.851562 188.882812 " fill-opacity="1" fill-rule="nonzero"/><path fill="#000000" d="M 256.578125 178.859375 C 253.394531 175.667969 249.664062 173.207031 245.566406 171.386719 C 241.378906 169.5625 236.738281 168.652344 231.914062 168.652344 L 217.078125 168.652344 L 217.078125 146.507812 C 217.078125 144.867188 215.714844 143.5 214.074219 143.5 L 199.878906 143.5 C 198.238281 143.5 196.875 144.867188 196.875 146.507812 L 196.875 203.644531 C 196.875 208.382812 197.785156 212.9375 199.605469 217.222656 C 201.425781 221.414062 203.972656 225.238281 207.160156 228.429688 C 210.34375 231.617188 214.167969 234.171875 218.355469 235.992188 C 222.632812 237.816406 227.183594 238.726562 231.914062 238.726562 C 236.738281 238.726562 241.378906 237.816406 245.566406 235.992188 C 249.753906 234.171875 253.484375 231.617188 256.578125 228.429688 C 259.765625 225.238281 262.222656 221.503906 264.042969 217.222656 C 265.863281 212.9375 266.773438 208.382812 266.773438 203.644531 C 266.773438 198.8125 265.863281 194.167969 264.042969 189.976562 C 262.222656 185.78125 259.671875 182.046875 256.578125 178.859375 Z M 245.382812 209.382812 C 244.65625 211.207031 243.5625 212.847656 242.199219 214.121094 C 240.835938 215.488281 239.285156 216.492188 237.464844 217.3125 C 233.917969 218.769531 229.546875 218.769531 226 217.3125 C 224.179688 216.492188 222.632812 215.488281 221.265625 214.121094 C 219.902344 212.757812 218.898438 211.207031 218.082031 209.382812 C 217.351562 207.5625 216.898438 205.648438 216.898438 203.550781 L 216.898438 188.789062 L 231.734375 188.789062 C 233.734375 188.789062 235.644531 189.15625 237.464844 189.882812 C 239.285156 190.613281 240.835938 191.707031 242.199219 193.074219 C 243.5625 194.441406 244.566406 195.988281 245.382812 197.8125 C 246.113281 199.542969 246.476562 201.457031 246.476562 203.550781 C 246.566406 205.648438 246.203125 207.5625 245.382812 209.382812 Z M 245.382812 209.382812 " fill-opacity="1" fill-rule="nonzero"/><path fill="#000000" d="M 188.863281 168.378906 L 181.765625 168.378906 C 177.035156 168.378906 172.484375 169.289062 168.207031 171.113281 C 164.019531 172.933594 160.195312 175.394531 157.011719 178.585938 C 153.824219 181.773438 151.277344 185.507812 149.457031 189.609375 C 147.636719 193.800781 146.726562 198.449219 146.726562 203.277344 L 146.726562 235.355469 C 146.726562 236.996094 148.089844 238.363281 149.730469 238.363281 L 163.925781 238.363281 C 165.566406 238.363281 166.929688 236.996094 166.929688 235.355469 L 166.929688 220.867188 L 167.023438 220.867188 L 167.023438 203.277344 C 167.023438 201.273438 167.386719 199.359375 168.113281 197.539062 C 168.84375 195.714844 169.933594 194.167969 171.300781 192.800781 C 172.664062 191.433594 174.210938 190.429688 176.03125 189.609375 C 177.761719 188.882812 179.671875 188.515625 181.765625 188.515625 L 188.863281 188.515625 C 189.867188 188.515625 190.683594 187.695312 190.683594 186.695312 L 190.683594 170.199219 C 190.683594 169.199219 189.867188 168.378906 188.863281 168.378906 Z M 188.863281 168.378906 " fill-opacity="1" fill-rule="nonzero"/><path fill="#000000" d="M 133.710938 156.625 C 132.347656 154.710938 129.617188 154.527344 127.976562 156.167969 L 118.695312 165.460938 C 117.511719 166.648438 117.238281 168.558594 118.148438 170.109375 C 122.335938 176.851562 124.246094 185.144531 122.605469 193.984375 C 120.148438 207.199219 109.59375 217.859375 96.394531 220.410156 C 73.824219 224.695312 54.257812 205.921875 56.894531 183.597656 C 58.714844 168.742188 70.546875 156.714844 85.292969 154.710938 C 92.300781 153.707031 98.945312 154.984375 104.675781 157.898438 C 106.132812 158.628906 107.863281 158.355469 108.957031 157.167969 L 118.421875 147.691406 C 120.148438 145.960938 119.785156 143.136719 117.785156 141.859375 C 108.046875 135.847656 96.121094 132.929688 83.5625 134.386719 C 58.441406 137.304688 38.511719 157.988281 36.507812 183.324219 C 33.777344 217.222656 62.71875 245.289062 96.941406 240.914062 C 120.695312 237.90625 139.808594 218.953125 143.085938 195.261719 C 145.085938 180.769531 141.265625 167.285156 133.710938 156.625 Z M 133.710938 156.625 " fill-opacity="1" fill-rule="nonzero"/></svg>