<svg xmlns="http://www.w3.org/2000/svg" xmlns:xlink="http://www.w3.org/1999/xlink" width="800" zoomAndPan="magnify" viewBox="0 0 600 599.999999" height="800" preserveAspectRatio="xMidYMid meet" version="1.0"><path fill="#5a74ff" d="M 299.613281 228.769531 C 260.925781 228.769531 229.828125 260.226562 229.828125 298.550781 C 229.828125 336.878906 261.285156 368.335938 299.613281 368.335938 C 338.300781 368.335938 369.398438 336.878906 369.398438 298.550781 C 369.398438 260.226562 337.941406 228.769531 299.613281 228.769531 Z M 299.613281 228.769531 " fill-opacity="1" fill-rule="nonzero"/><path fill="#5a74ff" d="M 473.167969 175.617188 C 467.746094 168.023438 456.898438 167.300781 450.390625 173.808594 L 413.507812 210.6875 C 408.808594 215.390625 407.722656 222.984375 411.339844 229.128906 C 427.972656 255.886719 435.566406 288.789062 429.058594 323.863281 C 419.292969 376.289062 377.351562 418.59375 324.921875 428.71875 C 235.253906 445.714844 157.511719 371.230469 168 282.644531 C 175.230469 223.707031 222.234375 175.976562 280.8125 168.023438 C 308.652344 164.046875 335.046875 169.109375 357.828125 180.679688 C 363.613281 183.570312 370.480469 182.484375 374.820312 177.785156 L 412.425781 140.179688 C 419.292969 133.3125 417.847656 122.101562 409.894531 117.039062 C 371.203125 93.175781 323.839844 81.605469 273.941406 87.390625 C 174.144531 98.960938 94.960938 181.039062 87.007812 281.558594 C 76.160156 416.0625 191.140625 527.429688 327.09375 510.074219 C 421.464844 498.140625 497.394531 422.933594 510.410156 328.925781 C 518.367188 271.433594 503.179688 217.921875 473.167969 175.617188 Z M 473.167969 175.617188 " fill-opacity="1" fill-rule="nonzero"/></svg>